<svg width="178" height="33" viewBox="0 0 178 33" fill="none" xmlns="http://www.w3.org/2000/svg">
<path fill-rule="evenodd" clip-rule="evenodd" d="M70.6027 0.114685C70.5499 0.146134 70.7402 0.197829 71.1296 0.257826C72.4934 0.468017 74.2051 0.983427 75.3215 1.51999C77.8768 2.74809 79.4407 4.58487 79.9056 6.90379C80.1148 7.9474 80.1869 11.0727 80.0654 13.8335C79.8585 18.5364 79.3175 22.8611 78.0052 30.3033C77.8446 31.2136 77.7133 32.0017 77.7133 32.0545C77.7133 32.144 78.1735 32.149 84.5942 32.1303C90.7101 32.1125 91.5466 32.0994 92.1174 32.0135C94.8385 31.6034 96.8092 30.925 99.4367 29.4941C100.431 28.9528 101.752 28.1646 101.665 28.1646C101.629 28.1646 101.146 28.2535 100.591 28.362C99.3768 28.5996 97.6376 28.8607 96.3458 28.9992C94.982 29.1455 91.585 29.1464 90.5599 29.0008C87.8887 28.6212 86.0772 27.699 85.4813 26.4155C85.3315 26.0928 85.3298 26.0646 85.3434 24.0416C85.3508 22.9156 85.4056 19.1536 85.4651 15.6817C85.593 8.20889 85.5826 7.47914 85.3378 6.7532C84.9458 5.59061 84.0074 4.28204 82.93 3.39527C80.8615 1.69293 78.308 0.679742 74.902 0.209885C74.1371 0.104392 70.7458 0.029267 70.6027 0.114685ZM148.909 5.6646C148.963 5.70907 149.522 6.05791 150.151 6.43984C151.557 7.293 152.04 7.63365 152.666 8.21259C154.109 9.54669 154.956 11.1093 156.037 14.4306C156.971 17.3007 158.781 23.9494 158.781 24.5108C158.781 24.6274 158.578 24.5507 156.542 23.6651C148.642 20.2291 144.106 17.8299 139.527 14.6661C136.5 12.5743 133.419 9.97486 130.838 7.33526C130.448 6.93603 130.066 6.59766 129.99 6.58338C129.821 6.55159 126.578 6.19121 125.406 6.07383C124.186 5.95179 122.583 5.82668 121.712 5.78562L120.96 5.75013L121.466 5.99575C124.525 7.48147 128.488 11.8885 130.227 15.7386C130.531 16.4119 130.687 16.9097 130.959 18.0738C131.647 21.0231 131.98 23.1276 132.109 25.352C132.248 27.7326 131.986 29.7284 131.224 32.0984C131.101 32.481 131.011 32.8034 131.024 32.8148C131.069 32.8541 132.408 31.652 132.85 31.1746C133.838 30.1095 134.807 28.6344 135.314 27.4253C136.045 25.6807 136.387 23.3659 136.23 21.2123C136.163 20.278 136.031 19.2044 135.92 18.6681L135.879 18.4698L136.101 18.6168C138.774 20.3817 142.471 22.3628 147.046 24.4818C150.51 26.0866 155.822 28.4354 157.091 28.9237C162.318 30.9357 168.505 32.1883 174.668 32.4822C176.405 32.5651 177.897 32.604 177.853 32.5654C177.832 32.5471 177.467 32.4104 177.042 32.2616C173.344 30.9671 170.049 29.3265 168.244 27.8823C167.705 27.4505 167.038 26.6894 166.698 26.1173C166.559 25.8827 166.203 25.115 165.908 24.4112C163.572 18.8422 160.642 12.3391 160.05 11.4071C158.974 9.71565 156.969 8.39252 153.57 7.13081C152.058 6.56956 148.742 5.52646 148.909 5.6646ZM97.3985 6.13963C97.3483 6.15692 97.8632 6.33037 98.5426 6.52503C103.417 7.92153 105.69 9.49073 106.415 11.96C106.595 12.5724 106.74 13.7192 107.198 18.1271C107.709 23.0453 108.027 25.8222 108.15 26.4445C108.322 27.3175 108.614 27.9742 109.129 28.6517C110.861 30.9259 114.629 32.2493 120.699 32.7152C121.585 32.7831 125.359 32.8608 125.306 32.81C125.287 32.7918 124.669 32.6001 123.933 32.3841C118.99 30.933 116.508 29.5909 115.375 27.7565C114.719 26.6943 114.683 26.5043 113.606 18.383C113.133 14.8158 112.856 12.8967 112.72 12.2411C112.44 10.8967 111.769 9.82365 110.62 8.88473C108.758 7.36364 105.923 6.47289 101.936 6.15641C101.192 6.09737 97.5601 6.08395 97.3985 6.13963ZM18.5446 6.72419C20.4163 7.51087 22.3425 9.1701 23.1236 10.6687C23.8702 12.1011 23.7298 13.9796 22.7557 15.5909C22.3597 16.2458 22.0244 16.6407 21.0784 17.566C15.5928 22.9317 8.62819 27.9791 1.42382 31.8102C0.812346 32.1354 0.353071 32.4094 0.40315 32.4191C0.543908 32.4464 9.04804 31.3129 14.8204 30.4975C20.062 29.7571 20.9241 29.6775 23.7444 29.6742C26.1089 29.6715 26.5648 29.704 27.8305 29.9657C29.498 30.3104 30.9374 31.0255 31.7056 31.8907L31.9819 32.2019L34.2701 32.2033C35.5286 32.2041 38.1876 32.2206 40.179 32.2401C42.6041 32.2637 43.7914 32.2565 43.7747 32.2181C43.761 32.1865 43.4687 31.9954 43.1251 31.7933C39.7322 29.7983 37.2499 27.1182 35.7873 23.871C34.646 21.337 32.8259 17.0022 31.5489 13.7766C30.5503 11.254 30.4471 11.0297 30.0454 10.5073C28.5564 8.57075 25.5351 7.17773 21.6523 6.63752C21.2592 6.58287 20.399 6.53561 19.4949 6.51912L17.9912 6.4916L18.5446 6.72419ZM65.4877 8.09475C59.5693 8.58975 53.5315 11.3944 50.0114 15.2836C47.4473 18.1167 46.3108 21.3971 46.7613 24.6649C47.0599 26.8306 48.0332 29.0176 49.69 31.2456L50.3529 32.1371L50.7779 32.1832C51.0116 32.2084 52.7326 32.2295 54.6024 32.23C57.4419 32.2307 58.1852 32.2138 59.1134 32.1274C61.6382 31.8926 63.9314 31.4619 66.1234 30.8109C67.325 30.454 69.12 29.8125 69.7699 29.5077L70.0968 29.3544L69.8467 29.3885C68.6347 29.5535 67.9873 29.5986 66.431 29.6263C63.6644 29.6755 61.6074 29.4644 59.3507 28.8997C55.0564 27.8251 52.4518 25.7826 51.955 23.1002C51.8793 22.6911 51.8812 21.2145 51.9575 21.1482C51.9771 21.1312 53.9923 21.1141 56.4359 21.1102C60.2309 21.1041 61.0073 21.117 61.7612 21.1984C63.478 21.3837 65.0832 21.8273 66.7101 22.5662L67.5076 22.9284L67.8587 22.5751C69.4145 21.0093 70.7558 19.391 71.3513 18.361L71.6436 17.8555L71.2624 17.8912C68.1502 18.1826 62.0777 18.3079 56.1401 18.2031C54.4328 18.173 53.026 18.1397 53.0138 18.1291C52.9679 18.0891 53.4085 17.2457 53.7303 16.7574C54.2825 15.9194 54.8344 15.3287 55.7085 14.6398C58.1298 12.7315 61.4815 11.9858 64.932 12.5879C66.2146 12.8117 68.0144 13.4163 69.2049 14.0233C69.4296 14.1378 69.6413 14.2316 69.6754 14.2316C69.7718 14.2316 69.7482 12.7914 69.6418 12.1843C69.3811 10.6973 68.4995 9.41885 66.9981 8.35032C66.5031 7.99807 66.5496 8.00592 65.4877 8.09475ZM25.9024 17.7016C26.3914 18.5462 26.8242 19.6547 27.4786 21.7384C28.0535 23.5689 28.4795 24.8069 28.7089 25.3138L28.8729 25.676L28.6804 25.6425C28.0629 25.535 26.8992 25.4812 25.8691 25.5125C23.4999 25.5843 21.0532 25.8689 16.7246 26.5762C15.956 26.7018 15.3163 26.7951 15.3031 26.7837C15.29 26.7722 15.633 26.5248 16.0655 26.2338C17.4945 25.2723 18.7558 24.2931 20.3502 22.9076C22.49 21.0481 23.779 19.7135 25.0638 18.0276C25.3677 17.6288 25.6287 17.3025 25.6438 17.3025C25.659 17.3025 25.7753 17.4821 25.9024 17.7016Z" fill="#A4F3FF"/>
</svg>
