<svg width="21" height="16" viewBox="0 0 21 16" fill="none" xmlns="http://www.w3.org/2000/svg">
<path d="M17.6953 1.36315C16.3778 0.769021 14.9657 0.329883 13.4889 0.080177C13.4757 0.0776523 13.4621 0.0792793 13.4499 0.084833C13.4378 0.0903867 13.4276 0.0995923 13.4209 0.111175C13.24 0.428904 13.0385 0.843071 12.8973 1.17027C11.3311 0.936269 9.73878 0.936269 8.17255 1.17027C8.01525 0.807648 7.83788 0.454068 7.64125 0.111175C7.63459 0.0994497 7.62451 0.0900358 7.61235 0.0841896C7.6002 0.0783434 7.58655 0.0763427 7.57323 0.0784548C6.09733 0.328161 4.68515 0.767299 3.36682 1.36229C3.35548 1.36704 3.34587 1.37516 3.33927 1.38554C0.659568 5.32486 -0.0749384 9.16689 0.285857 12.9607C0.286861 12.97 0.289745 12.979 0.294334 12.9871C0.298923 12.9953 0.305121 13.0024 0.31255 13.0081C1.87662 14.1467 3.62113 15.0142 5.47304 15.574C5.48595 15.578 5.49976 15.578 5.51266 15.574C5.52556 15.57 5.53696 15.5622 5.54537 15.5516C5.94319 15.0178 6.29796 14.4538 6.60106 13.8614C6.61915 13.8269 6.60192 13.7856 6.56576 13.7718C6.0095 13.5623 5.47053 13.3096 4.9538 13.0158C4.94452 13.0105 4.9367 13.003 4.93104 12.9939C4.92537 12.9848 4.92205 12.9745 4.92137 12.9638C4.92069 12.9532 4.92266 12.9425 4.92712 12.9328C4.93158 12.9231 4.93838 12.9146 4.94692 12.9082C5.05541 12.8281 5.16391 12.7446 5.26724 12.661C5.27654 12.6535 5.28775 12.6488 5.2996 12.6472C5.31146 12.6457 5.32351 12.6475 5.33441 12.6524C8.71589 14.1713 12.3781 14.1713 15.72 12.6524C15.7309 12.6472 15.7431 12.6452 15.7551 12.6466C15.7671 12.6479 15.7785 12.6526 15.788 12.6602C15.8913 12.7446 15.999 12.8281 16.1083 12.9082C16.1169 12.9145 16.1238 12.9228 16.1284 12.9325C16.133 12.9421 16.1352 12.9527 16.1347 12.9634C16.1342 12.974 16.131 12.9844 16.1255 12.9936C16.12 13.0027 16.1123 13.0103 16.1031 13.0158C15.5882 13.312 15.0526 13.5626 14.4903 13.7709C14.4817 13.7741 14.4738 13.779 14.4673 13.7854C14.4607 13.7919 14.4556 13.7996 14.4522 13.8082C14.4489 13.8167 14.4474 13.8259 14.4479 13.8351C14.4484 13.8442 14.4508 13.8532 14.455 13.8614C14.765 14.4529 15.1198 15.016 15.5099 15.5507C15.518 15.5617 15.5293 15.5699 15.5422 15.5742C15.5552 15.5785 15.5691 15.5788 15.5822 15.5749C17.4373 15.0166 19.1846 14.1488 20.7504 13.0081C20.7581 13.0027 20.7645 12.9958 20.7692 12.9878C20.774 12.9798 20.777 12.9708 20.778 12.9616C21.2085 8.57534 20.0564 4.76431 17.722 1.38726C17.7163 1.37628 17.7068 1.36773 17.6953 1.36315ZM7.10652 10.6505C6.08872 10.6505 5.24916 9.73001 5.24916 8.60117C5.24916 7.47147 6.07236 6.55186 7.10652 6.55186C8.14844 6.55186 8.98024 7.47922 8.96388 8.60117C8.96388 9.73088 8.14069 10.6505 7.10652 10.6505ZM13.9737 10.6505C12.955 10.6505 12.1163 9.73001 12.1163 8.60117C12.1163 7.47147 12.9387 6.55186 13.9737 6.55186C15.0156 6.55186 15.8474 7.47922 15.831 8.60117C15.831 9.73088 15.0165 10.6505 13.9737 10.6505Z" fill="white"/>
</svg>
