<svg width="359" height="65" viewBox="0 0 359 65" fill="none" xmlns="http://www.w3.org/2000/svg">
<path fill-rule="evenodd" clip-rule="evenodd" d="M142.071 0.150783C141.964 0.212874 142.349 0.314937 143.135 0.433392C145.889 0.84838 149.346 1.86598 151.6 2.92534C156.76 5.35003 159.918 8.97645 160.857 13.5548C161.279 15.6152 161.425 21.7856 161.179 27.2364C160.762 36.5215 159.669 45.0599 157.019 59.7534C156.695 61.5508 156.43 63.1066 156.43 63.2108C156.43 63.3875 157.359 63.3975 170.325 63.3606C182.675 63.3253 184.364 63.2996 185.516 63.1299C191.011 62.3202 194.991 60.9809 200.297 58.1558C202.304 57.0872 204.971 55.531 204.796 55.531C204.724 55.531 203.748 55.7063 202.628 55.9207C200.176 56.3897 196.664 56.9052 194.055 57.1788C191.301 57.4676 184.441 57.4694 182.371 57.1818C176.977 56.4323 173.319 54.6117 172.116 52.0776C171.814 51.4404 171.81 51.3848 171.837 47.3906C171.852 45.1675 171.963 37.7402 172.083 30.8855C172.342 16.1315 172.32 14.6907 171.826 13.2575C171.035 10.9621 169.14 8.37856 166.964 6.62778C162.787 3.26678 157.631 1.2664 150.753 0.33874C149.208 0.130461 142.36 -0.0178616 142.071 0.150783ZM300.199 11.1082C300.307 11.196 301.436 11.8847 302.707 12.6388C305.545 14.3232 306.521 14.9958 307.785 16.1388C310.699 18.7728 312.409 21.8579 314.592 28.4153C316.478 34.0819 320.133 47.2086 320.133 48.3171C320.133 48.5472 319.723 48.3958 315.611 46.6474C299.659 39.8636 290.499 35.1267 281.253 28.8802C275.141 24.7502 268.919 19.6181 263.707 14.4067C262.918 13.6185 262.148 12.9504 261.994 12.9222C261.653 12.8594 255.105 12.1479 252.737 11.9162C250.275 11.6752 247.037 11.4282 245.278 11.3471L243.76 11.2771L244.781 11.762C250.959 14.6953 258.961 23.3964 262.473 30.9977C263.087 32.327 263.402 33.3099 263.951 35.6083C265.341 41.4311 266.013 45.5861 266.274 49.9779C266.554 54.6781 266.025 58.6183 264.486 63.2975C264.238 64.0529 264.056 64.6894 264.082 64.7119C264.174 64.7896 266.877 62.4163 267.77 61.4737C269.764 59.3707 271.721 56.4585 272.745 54.0713C274.222 50.6269 274.911 46.0565 274.596 41.8047C274.459 39.9601 274.194 37.8404 273.969 36.7815L273.885 36.39L274.335 36.6802C279.732 40.1647 287.198 44.0762 296.436 48.2598C303.432 51.4281 314.158 56.0656 316.72 57.0296C327.276 61.0019 339.77 63.475 352.214 64.0554C355.723 64.219 358.735 64.2959 358.645 64.2197C358.603 64.1834 357.866 63.9136 357.008 63.6198C349.541 61.0639 342.886 57.8248 339.243 54.9735C338.154 54.1209 336.807 52.6183 336.121 51.4889C335.839 51.0257 335.121 49.5099 334.525 48.1205C329.808 37.1253 323.892 24.286 322.695 22.4458C320.523 19.1064 316.474 16.4941 309.61 14.003C306.557 12.8949 299.861 10.8355 300.199 11.1082ZM196.181 12.0461C196.08 12.0802 197.119 12.4227 198.491 12.807C208.335 15.5642 212.924 18.6623 214.388 23.5375C214.751 24.7465 215.045 27.0107 215.97 35.7135C217.001 45.4237 217.643 50.9061 217.891 52.1349C218.239 53.8584 218.828 55.155 219.87 56.4925C223.367 60.9827 230.975 63.5955 243.232 64.5153C245.021 64.6495 252.643 64.8028 252.535 64.7025C252.496 64.6665 251.249 64.2881 249.763 63.8616C239.781 60.9966 234.769 58.3469 232.481 54.7252C231.156 52.6281 231.083 52.2529 228.909 36.2188C227.954 29.1759 227.395 25.3868 227.12 24.0925C226.555 21.4382 225.199 19.3196 222.879 17.4658C219.119 14.4627 213.394 12.704 205.343 12.0792C203.841 11.9627 196.507 11.9362 196.181 12.0461ZM36.948 13.2002C40.7275 14.7534 44.6172 18.0293 46.1946 20.988C47.7022 23.816 47.4186 27.5249 45.4516 30.7061C44.6519 31.9991 43.9748 32.7787 42.0645 34.6056C30.9873 45.1994 16.9233 55.1647 2.37526 62.7286C1.14049 63.3706 0.213059 63.9116 0.314186 63.9308C0.598422 63.9846 17.7712 61.7468 29.4275 60.1369C40.0121 58.675 41.7529 58.5179 47.4481 58.5114C52.2228 58.506 53.1435 58.5703 55.6993 59.0869C59.0665 59.7674 61.9732 61.1792 63.5245 62.8876L64.0825 63.502L68.7031 63.5048C71.2445 63.5062 76.6138 63.5389 80.6351 63.5773C85.5322 63.624 87.9298 63.6097 87.8962 63.5338C87.8684 63.4715 87.2782 63.0942 86.5844 62.6952C79.7329 58.7563 74.7203 53.465 71.7668 47.0538C69.4621 42.0508 65.7868 33.4926 63.2081 27.1241C61.1915 22.1437 60.9832 21.7007 60.1719 20.6693C57.1652 16.8459 51.0641 14.0956 43.2235 13.0291C42.4296 12.9212 40.6925 12.8279 38.8669 12.7953L35.8304 12.741L36.948 13.2002ZM131.742 15.9062C119.791 16.8834 107.598 22.4208 100.49 30.0995C95.3124 35.6928 93.0174 42.1695 93.9272 48.6212C94.53 52.8971 96.4955 57.215 99.8411 61.6138L101.18 63.374L102.038 63.4649C102.51 63.5148 105.985 63.5564 109.761 63.5573C115.495 63.5588 116.996 63.5254 118.87 63.3549C123.969 62.8913 128.599 62.041 133.026 60.7556C135.452 60.0509 139.077 58.7845 140.389 58.1827L141.049 57.88L140.544 57.9472C138.097 58.2731 136.79 58.3621 133.647 58.4168C128.06 58.514 123.906 58.0972 119.349 56.9823C110.678 54.8605 105.418 50.8281 104.415 45.5321C104.262 44.7244 104.266 41.809 104.42 41.6781C104.46 41.6445 108.529 41.6108 113.463 41.6032C121.127 41.5911 122.695 41.6165 124.217 41.7772C127.684 42.143 130.925 43.0189 134.211 44.4778L135.821 45.1928L136.53 44.4953C139.672 41.4039 142.38 38.2088 143.583 36.1752L144.173 35.1773L143.403 35.2477C137.119 35.823 124.856 36.0703 112.866 35.8635C109.419 35.8041 106.578 35.7383 106.553 35.7173C106.46 35.6385 107.35 33.9732 108 33.0092C109.115 31.3547 110.229 30.1884 111.995 28.8283C116.884 25.0606 123.652 23.5885 130.62 24.7772C133.21 25.219 136.844 26.4127 139.248 27.6111C139.702 27.8373 140.13 28.0223 140.198 28.0223C140.393 28.0223 140.346 25.1789 140.131 23.9802C139.604 21.0446 137.824 18.5204 134.792 16.4107C133.793 15.7153 133.887 15.7308 131.742 15.9062ZM51.8059 34.8734C52.7933 36.5409 53.6672 38.7294 54.9887 42.8433C56.1497 46.4574 57.0099 48.9016 57.4732 49.9024L57.8043 50.6175L57.4156 50.5513C56.1687 50.3392 53.8188 50.233 51.7387 50.2947C46.9545 50.4365 42.0137 50.9984 33.2727 52.3949C31.7207 52.6429 30.429 52.8271 30.4023 52.8046C30.3758 52.7819 31.0685 52.2934 31.9418 51.7188C34.8275 49.8205 37.3745 47.8873 40.5941 45.1518C44.915 41.4804 47.5181 38.8456 50.1125 35.517C50.7261 34.7297 51.2533 34.0854 51.2838 34.0854C51.3144 34.0854 51.5492 34.44 51.8059 34.8734Z" fill="white" fill-opacity="0.8"/>
</svg>
