<?xml version="1.0" encoding="UTF-8" standalone="no" ?>
<!DOCTYPE svg PUBLIC "-//W3C//DTD SVG 1.1//EN" "http://www.w3.org/Graphics/SVG/1.1/DTD/svg11.dtd">
<svg xmlns="http://www.w3.org/2000/svg" xmlns:xlink="http://www.w3.org/1999/xlink" version="1.1" width="359.51541483674043" height="263.1936246470847" viewBox="140.2080364906932 0.2765486725663777 359.51541483674043 263.1936246470847" xml:space="preserve">
<desc>Created with Fabric.js 4.6.0</desc>
<defs>
</defs>
<g transform="matrix(1 0 0 1 320.05 230.64)" id="gWSybGBx72pL7BMM2bD38"  >
<path style="stroke: none; stroke-width: 1; stroke-dasharray: none; stroke-linecap: butt; stroke-dashoffset: 0; stroke-linejoin: miter; stroke-miterlimit: 4; fill: rgb(255,255,255); fill-rule: evenodd; opacity: 1;" vector-effect="non-scaling-stroke"  transform=" translate(-179.98, -32.33)" d="M 142.571 0.0738789 C 142.464 0.13597 142.849 0.238033 143.635 0.356488 C 146.389 0.771476 149.846 1.78907 152.1 2.84843 C 157.26 5.27312 160.418 8.89955 161.357 13.4779 C 161.779 15.5383 161.925 21.7087 161.679 27.1595 C 161.262 36.4446 160.169 44.983 157.519 59.6765 C 157.195 61.4739 156.93 63.0297 156.93 63.1339 C 156.93 63.3106 157.859 63.3206 170.825 63.2837 C 183.175 63.2484 184.864 63.2227 186.016 63.053 C 191.511 62.2433 195.491 60.904 200.797 58.0789 C 202.804 57.0103 205.471 55.4541 205.296 55.4541 C 205.224 55.4541 204.248 55.6294 203.128 55.8438 C 200.676 56.3128 197.164 56.8282 194.555 57.1019 C 191.801 57.3907 184.941 57.3925 182.871 57.1049 C 177.477 56.3554 173.819 54.5348 172.616 52.0006 C 172.314 51.3635 172.31 51.3079 172.337 47.3137 C 172.352 45.0906 172.463 37.6633 172.583 30.8086 C 172.842 16.0546 172.82 14.6138 172.326 13.1806 C 171.535 10.8852 169.64 8.30166 167.464 6.55087 C 163.287 3.18988 158.131 1.18949 151.253 0.261836 C 149.708 0.0535562 142.86 -0.0947659 142.571 0.0738789 Z M 300.699 11.0313 C 300.807 11.1191 301.936 11.8078 303.207 12.5619 C 306.045 14.2463 307.021 14.9189 308.285 16.0619 C 311.199 18.6959 312.909 21.781 315.092 28.3384 C 316.978 34.0049 320.633 47.1317 320.633 48.2402 C 320.633 48.4703 320.223 48.3189 316.111 46.5704 C 300.159 39.7867 290.999 35.0498 281.753 28.8033 C 275.641 24.6733 269.419 19.5412 264.207 14.3298 C 263.418 13.5415 262.648 12.8735 262.494 12.8453 C 262.153 12.7825 255.605 12.071 253.237 11.8393 C 250.775 11.5983 247.537 11.3513 245.778 11.2702 L 244.26 11.2002 L 245.281 11.6851 C 251.459 14.6184 259.461 23.3195 262.973 30.9208 C 263.587 32.2501 263.902 33.233 264.451 35.5314 C 265.841 41.3542 266.513 45.5092 266.774 49.901 C 267.054 54.6012 266.525 58.5414 264.986 63.2206 C 264.738 63.976 264.556 64.6125 264.582 64.635 C 264.674 64.7127 267.377 62.3394 268.27 61.3968 C 270.264 59.2938 272.221 56.3816 273.245 53.9944 C 274.722 50.55 275.411 45.9796 275.096 41.7278 C 274.959 39.8832 274.694 37.7635 274.469 36.7046 L 274.385 36.3131 L 274.835 36.6033 C 280.232 40.0878 287.698 43.9993 296.936 48.1829 C 303.932 51.3512 314.658 55.9887 317.22 56.9527 C 327.776 60.925 340.27 63.3981 352.714 63.9785 C 356.223 64.1421 359.235 64.219 359.145 64.1427 C 359.103 64.1065 358.366 63.8367 357.508 63.5429 C 350.041 60.987 343.386 57.7479 339.743 54.8966 C 338.654 54.044 337.307 52.5414 336.621 51.412 C 336.339 50.9488 335.621 49.433 335.025 48.0436 C 330.308 37.0484 324.392 24.2091 323.195 22.3689 C 321.023 19.0295 316.974 16.4172 310.11 13.9261 C 307.057 12.818 300.361 10.7586 300.699 11.0313 Z M 196.681 11.9692 C 196.58 12.0033 197.619 12.3458 198.991 12.7301 C 208.835 15.4873 213.424 18.5854 214.888 23.4606 C 215.251 24.6696 215.545 26.9338 216.47 35.6366 C 217.501 45.3468 218.143 50.8292 218.391 52.058 C 218.739 53.7815 219.328 55.0781 220.37 56.4156 C 223.867 60.9058 231.475 63.5186 243.732 64.4384 C 245.521 64.5726 253.143 64.7259 253.035 64.6256 C 252.996 64.5896 251.749 64.2112 250.263 63.7847 C 240.281 60.9197 235.269 58.27 232.981 54.6483 C 231.656 52.5512 231.583 52.176 229.409 36.1419 C 228.454 29.099 227.895 25.3099 227.62 24.0156 C 227.055 21.3613 225.699 19.2427 223.379 17.3889 C 219.619 14.3858 213.894 12.6271 205.843 12.0023 C 204.341 11.8858 197.007 11.8593 196.681 11.9692 Z M 37.448 13.1233 C 41.2275 14.6765 45.1172 17.9524 46.6946 20.9111 C 48.2022 23.7391 47.9186 27.448 45.9516 30.6292 C 45.1519 31.9221 44.4748 32.7018 42.5645 34.5287 C 31.4873 45.1225 17.4233 55.0878 2.87526 62.6517 C 1.64049 63.2937 0.713059 63.8346 0.814186 63.8538 C 1.09842 63.9077 18.2712 61.6699 29.9275 60.06 C 40.5121 58.5981 42.2529 58.441 47.9481 58.4345 C 52.7228 58.4291 53.6435 58.4934 56.1993 59.01 C 59.5665 59.6905 62.4732 61.1023 64.0245 62.8107 L 64.5825 63.4251 L 69.2031 63.4279 C 71.7445 63.4293 77.1138 63.462 81.1351 63.5004 C 86.0322 63.5471 88.4298 63.5328 88.3962 63.4569 C 88.3684 63.3946 87.7782 63.0172 87.0844 62.6183 C 80.2329 58.6794 75.2203 53.3881 72.2668 46.9769 C 69.9621 41.9739 66.2868 33.4157 63.7081 27.0472 C 61.6915 22.0668 61.4832 21.6238 60.6719 20.5924 C 57.6652 16.769 51.5641 14.0187 43.7235 12.9522 C 42.9296 12.8443 41.1925 12.751 39.3669 12.7184 L 36.3304 12.6641 L 37.448 13.1233 Z M 132.242 15.8293 C 120.291 16.8065 108.098 22.3439 100.99 30.0226 C 95.8124 35.6159 93.5174 42.0926 94.4272 48.5443 C 95.03 52.8202 96.9955 57.1381 100.341 61.5369 L 101.68 63.2971 L 102.538 63.388 C 103.01 63.4378 106.485 63.4795 110.261 63.4804 C 115.995 63.4819 117.496 63.4485 119.37 63.278 C 124.469 62.8144 129.099 61.9641 133.526 60.6787 C 135.952 59.974 139.577 58.7076 140.889 58.1058 L 141.549 57.8031 L 141.044 57.8703 C 138.597 58.1962 137.29 58.2852 134.147 58.3399 C 128.56 58.4371 124.406 58.0203 119.849 56.9054 C 111.178 54.7836 105.918 50.7512 104.915 45.4552 C 104.762 44.6475 104.766 41.7321 104.92 41.6012 C 104.96 41.5676 109.029 41.5339 113.963 41.5263 C 121.627 41.5142 123.195 41.5396 124.717 41.7003 C 128.184 42.0661 131.425 42.942 134.711 44.4009 L 136.321 45.1159 L 137.03 44.4184 C 140.172 41.327 142.88 38.1319 144.083 36.0983 L 144.673 35.1004 L 143.903 35.1708 C 137.619 35.7461 125.356 35.9934 113.366 35.7866 C 109.919 35.7272 107.078 35.6614 107.053 35.6404 C 106.96 35.5616 107.85 33.8963 108.5 32.9323 C 109.615 31.2778 110.729 30.1115 112.495 28.7514 C 117.384 24.9837 124.152 23.5116 131.12 24.7003 C 133.71 25.1421 137.344 26.3358 139.748 27.5342 C 140.202 27.7604 140.63 27.9454 140.698 27.9454 C 140.893 27.9454 140.846 25.102 140.631 23.9033 C 140.104 20.9676 138.324 18.4435 135.292 16.3338 C 134.293 15.6384 134.387 15.6539 132.242 15.8293 Z M 52.3059 34.7965 C 53.2933 36.464 54.1672 38.6525 55.4887 42.7664 C 56.6497 46.3805 57.5099 48.8247 57.9732 49.8255 L 58.3043 50.5406 L 57.9156 50.4744 C 56.6687 50.2623 54.3188 50.1561 52.2387 50.2178 C 47.4545 50.3596 42.5137 50.9215 33.7727 52.318 C 32.2207 52.566 30.929 52.7502 30.9023 52.7277 C 30.8758 52.705 31.5685 52.2165 32.4418 51.6419 C 35.3275 49.7436 37.8745 47.8104 41.0941 45.0749 C 45.415 41.4035 48.0181 38.7687 50.6125 35.4401 C 51.2261 34.6528 51.7533 34.0085 51.7838 34.0085 C 51.8144 34.0085 52.0492 34.3631 52.3059 34.7965 Z" stroke-linecap="round" />
</g>
<g transform="matrix(1 0 0 1 319.97 91.35)" id="62j53_NRN87qggOnXy9_y"  >
<path style="stroke: none; stroke-width: 1; stroke-dasharray: none; stroke-linecap: butt; stroke-dashoffset: 0; stroke-linejoin: miter; stroke-miterlimit: 4; fill: rgb(255,255,255); fill-rule: evenodd; opacity: 1;" vector-effect="non-scaling-stroke"  transform=" translate(-199.26, -111.44)" d="M 169.977 22.4952 C 185.447 27.9913 201.368 39.5835 207.825 50.0532 C 213.996 60.0605 212.835 73.1851 204.783 84.4423 C 201.51 89.0175 198.739 91.7765 190.92 98.2412 C 145.58 135.729 88.0141 170.992 28.4671 197.758 C 23.413 200.03 19.617 201.944 20.0309 202.012 C 21.1943 202.203 91.4843 194.284 139.195 188.587 C 182.519 183.414 189.644 182.858 212.955 182.835 C 232.499 182.816 236.267 183.043 246.728 184.872 C 260.511 187.28 272.408 192.276 278.758 198.321 L 281.042 200.495 L 299.955 200.505 C 310.357 200.51 332.334 200.626 348.794 200.761 C 368.838 200.927 378.652 200.876 378.514 200.608 C 378.4 200.387 375.984 199.052 373.145 197.64 C 345.101 183.702 324.584 164.978 312.494 142.291 C 303.061 124.587 288.018 94.3026 277.463 71.7667 C 269.209 54.1428 268.356 52.5754 265.036 48.9256 C 252.729 35.3961 227.756 25.6638 195.664 21.8896 C 192.414 21.5078 185.304 21.1776 177.831 21.0624 L 165.403 20.8701 L 169.977 22.4952 Z M 230.792 99.1888 C 234.834 105.089 238.411 112.834 243.82 127.391 C 248.572 140.18 252.093 148.83 253.989 152.371 L 255.345 154.901 L 253.754 154.667 C 248.65 153.917 239.031 153.541 230.517 153.759 C 210.935 154.261 190.712 156.249 154.934 161.191 C 148.581 162.069 143.294 162.721 143.185 162.641 C 143.077 162.56 145.912 160.832 149.486 158.799 C 161.298 152.081 171.723 145.24 184.901 135.56 C 202.587 122.569 213.242 113.245 223.861 101.466 C 226.373 98.6803 228.53 96.4004 228.655 96.4004 C 228.781 96.4004 229.742 97.6552 230.792 99.1888 Z" stroke-linecap="round" />
</g>
</svg>