<svg width="399" height="223" viewBox="0 0 399 223" fill="none" xmlns="http://www.w3.org/2000/svg">
<g filter="url(#filter0_bd_344_482)">
<path fill-rule="evenodd" clip-rule="evenodd" d="M169.977 22.4952C185.447 27.9913 201.368 39.5835 207.825 50.0532C213.996 60.0605 212.835 73.1851 204.783 84.4423C201.51 89.0175 198.739 91.7765 190.92 98.2412C145.58 135.729 88.0141 170.992 28.4671 197.758C23.413 200.03 19.617 201.944 20.0309 202.012C21.1943 202.203 91.4843 194.284 139.195 188.587C182.519 183.414 189.644 182.858 212.955 182.835C232.499 182.816 236.267 183.043 246.728 184.872C260.511 187.28 272.408 192.276 278.758 198.321L281.042 200.495L299.955 200.505C310.357 200.51 332.334 200.626 348.794 200.761C368.838 200.927 378.652 200.876 378.514 200.608C378.4 200.387 375.984 199.052 373.145 197.64C345.101 183.702 324.584 164.978 312.494 142.291C303.061 124.587 288.018 94.3026 277.463 71.7667C269.209 54.1428 268.356 52.5754 265.036 48.9256C252.729 35.3961 227.756 25.6638 195.664 21.8896C192.414 21.5078 185.304 21.1776 177.831 21.0624L165.403 20.8701L169.977 22.4952ZM230.792 99.1888C234.834 105.089 238.411 112.834 243.82 127.391C248.572 140.18 252.093 148.83 253.989 152.371L255.345 154.901L253.754 154.667C248.65 153.917 239.031 153.541 230.517 153.759C210.935 154.261 190.712 156.249 154.934 161.191C148.581 162.069 143.294 162.721 143.185 162.641C143.077 162.56 145.912 160.832 149.486 158.799C161.298 152.081 171.723 145.24 184.901 135.56C202.587 122.569 213.242 113.245 223.861 101.466C226.373 98.6803 228.53 96.4004 228.655 96.4004C228.781 96.4004 229.742 97.6552 230.792 99.1888Z" fill="white"/>
</g>
<defs>
<filter id="filter0_bd_344_482" x="-30" y="-29.1299" width="458.515" height="281.146" filterUnits="userSpaceOnUse" color-interpolation-filters="sRGB">
<feFlood flood-opacity="0" result="BackgroundImageFix"/>
<feGaussianBlur in="BackgroundImage" stdDeviation="25"/>
<feComposite in2="SourceAlpha" operator="in" result="effect1_backgroundBlur_344_482"/>
<feColorMatrix in="SourceAlpha" type="matrix" values="0 0 0 0 0 0 0 0 0 0 0 0 0 0 0 0 0 0 127 0" result="hardAlpha"/>
<feOffset/>
<feGaussianBlur stdDeviation="10"/>
<feComposite in2="hardAlpha" operator="out"/>
<feColorMatrix type="matrix" values="0 0 0 0 0 0 0 0 0 0 0 0 0 0 0 0 0 0 0.25 0"/>
<feBlend mode="normal" in2="effect1_backgroundBlur_344_482" result="effect2_dropShadow_344_482"/>
<feBlend mode="normal" in="SourceGraphic" in2="effect2_dropShadow_344_482" result="shape"/>
</filter>
</defs>
</svg>
