<svg width="22" height="16" viewBox="0 0 22 16" fill="none" xmlns="http://www.w3.org/2000/svg">
<path d="M19.0307 0.0778668C18.472 0.0702563 17.1742 0.24491 15.0074 1.58037C13.8265 1.30858 12.5699 1.17446 11.3113 1.17446C9.92637 1.17446 8.52685 1.3364 7.2217 1.6661C4.11078 -0.288243 2.73765 0.112261 2.73765 0.112261C1.84122 2.1766 2.39517 3.70497 2.56354 4.08455C1.50991 5.1317 0.866699 6.46887 0.866699 8.10771C0.866699 9.34495 1.01962 10.4547 1.39322 11.4193C1.41394 11.4938 1.40722 11.4772 1.44213 11.5409C1.52444 11.7406 1.61595 11.9345 1.71881 12.1217C1.75406 12.189 1.78614 12.2389 1.78614 12.2389C2.83637 14.0417 4.90671 15.2062 8.59034 15.5718L14.1616 15.5776C18.09 15.2189 19.9751 14.0509 20.8438 12.236L20.899 12.1178C20.9813 11.9345 21.0531 11.7437 21.2493 11.1016C21.4456 10.4595 21.5334 9.34742 21.5334 8.10722C21.5334 6.32852 20.8079 4.90528 19.6298 3.82249C19.8357 3.21055 20.1107 1.85155 19.3552 0.111765C19.3552 0.111765 19.2493 0.0808428 19.0307 0.0778513L19.0307 0.0778668ZM14.6402 6.60519C15.5474 6.60338 16.3244 6.7468 16.9078 7.31042V7.3109C17.6378 8.01679 18.065 8.86904 18.065 9.78746C18.065 14.0757 15.07 14.1923 11.376 14.1923C7.68126 14.1923 4.68697 13.5981 4.68697 9.78746C4.68697 8.87512 5.10792 8.02797 5.8289 7.32495C7.03155 6.1533 9.06677 6.77374 11.376 6.77374C12.5613 6.77357 13.6746 6.60711 14.6403 6.60517L14.6402 6.60519ZM7.75925 7.86794C6.9906 7.86794 6.36747 8.82493 6.36747 10.0059C6.36747 11.1871 6.99057 12.1444 7.75925 12.1444C8.52789 12.1444 9.15103 11.1871 9.15103 10.0059C9.15103 8.8251 8.52793 7.8688 7.75925 7.86794ZM15.2267 7.86794C14.4581 7.86794 13.8349 8.82493 13.8349 10.0059C13.8349 11.1871 14.458 12.1444 15.2267 12.1444C15.9954 12.1444 16.6185 11.1871 16.6185 10.0059C16.6185 8.8251 15.9954 7.8688 15.2267 7.86794Z" fill="white"/>
</svg>
