<svg width="20" height="17" viewBox="0 0 20 17" fill="none" xmlns="http://www.w3.org/2000/svg">
<path d="M19.2 1.97553C18.4939 2.29625 17.7354 2.51295 16.938 2.6109C17.7608 2.10624 18.3763 1.31196 18.6698 0.376268C17.8968 0.846936 17.0508 1.17823 16.1686 1.35576C15.5753 0.706405 14.7894 0.276001 13.9331 0.131372C13.0767 -0.0132566 12.1977 0.135981 11.4326 0.555916C10.6675 0.975851 10.059 1.64299 9.7016 2.45375C9.34424 3.26451 9.25799 4.17354 9.45625 5.0397C7.88995 4.95908 6.35769 4.54176 4.95891 3.81481C3.56013 3.08787 2.32609 2.06755 1.33688 0.820074C0.998643 1.41817 0.804158 2.11162 0.804158 2.85014C0.80378 3.51498 0.963495 4.16963 1.26913 4.75602C1.57477 5.3424 2.01687 5.84239 2.55622 6.21162C1.93072 6.19122 1.31902 6.01796 0.772025 5.70627V5.75828C0.771962 6.69074 1.08661 7.59451 1.66259 8.31623C2.23856 9.03795 3.04038 9.53317 3.932 9.71786C3.35174 9.87884 2.74338 9.90255 2.15288 9.7872C2.40444 10.5895 2.89446 11.2911 3.55433 11.7938C4.21421 12.2965 5.01091 12.575 5.83289 12.5905C4.43752 13.7133 2.71425 14.3224 0.940298 14.3197C0.62606 14.3198 0.312088 14.301 0 14.2634C1.80067 15.4502 3.89677 16.0801 6.03752 16.0776C13.2842 16.0776 17.2458 9.92503 17.2458 4.58896C17.2458 4.41559 17.2416 4.2405 17.234 4.06714C18.0046 3.49589 18.6697 2.7885 19.1983 1.97813L19.2 1.97553V1.97553Z" fill="white"/>
</svg>
